<?xml version="1.0" encoding="UTF-8" standalone="no"?>
<svg width="30px" height="30px" viewBox="0 0 30 30" version="1.1" xmlns="http://www.w3.org/2000/svg" xmlns:xlink="http://www.w3.org/1999/xlink">
    <!-- Generator: Sketch 49.1 (51147) - http://www.bohemiancoding.com/sketch -->
    <title>风力</title>
    <desc>Created with Sketch.</desc>
    <defs></defs>
    <g id="Page-1" stroke="none" stroke-width="1" fill="none" fill-rule="evenodd">
        <g id="电子易拉宝5" transform="translate(-673.000000, -1520.000000)" fill="#A0C8FB">
            <path d="M679.489152,1538.42933 L690.346152,1537.68433 C690.469152,1537.67533 690.589152,1537.68533 690.703152,1537.71033 L690.848152,1537.74333 C691.098152,1537.80033 691.204152,1537.83133 691.367152,1537.87833 C691.513152,1537.92233 691.659152,1537.96833 691.799152,1538.02133 C692.083152,1538.12133 692.359152,1538.24133 692.635152,1538.37933 C693.184152,1538.65533 693.731152,1539.01433 694.238152,1539.49133 C694.748152,1539.95733 695.198152,1540.58733 695.511152,1541.28033 C695.845152,1541.97933 695.969152,1542.73233 696.018152,1543.45533 C696.022152,1544.18933 695.950152,1544.98433 695.634152,1545.74133 C695.339152,1546.48933 694.881152,1547.17933 694.359152,1547.70433 C693.837152,1548.23433 693.271152,1548.64133 692.699152,1548.96533 C692.412152,1549.12833 692.123152,1549.26933 691.825152,1549.39433 C691.678152,1549.45733 691.523152,1549.51433 691.369152,1549.57133 C691.191152,1549.62933 691.089152,1549.67133 690.796152,1549.74233 C689.253152,1550.05033 687.752152,1549.05033 687.443152,1547.50733 C687.135152,1545.96433 688.135152,1544.46333 689.678152,1544.15533 C689.597152,1544.17933 689.703152,1544.16133 689.734152,1544.15933 C689.785152,1544.14933 689.838152,1544.14333 689.893152,1544.12833 C690.002152,1544.10533 690.112152,1544.07333 690.210152,1544.03833 C690.411152,1543.97033 690.571152,1543.89033 690.683152,1543.82833 C690.888152,1543.68733 690.939152,1543.71833 691.034152,1543.44133 C691.066152,1543.14933 691.105152,1543.01133 690.913152,1542.70933 C690.814152,1542.56733 690.658152,1542.40633 690.453152,1542.25633 C690.352152,1542.18133 690.239152,1542.10833 690.121152,1542.04433 L689.947152,1541.95233 C689.905152,1541.92933 689.805152,1541.89233 689.845152,1541.89533 L690.346152,1541.95433 L679.489152,1541.20833 C678.721152,1541.15733 678.142152,1540.49233 678.195152,1539.72433 C678.242152,1539.02133 678.805152,1538.47633 679.489152,1538.42933 Z M679.431052,1528.85123 L686.421052,1527.85023 L686.188052,1527.87223 C686.114052,1527.87923 686.172052,1527.86523 686.175052,1527.85823 L686.233052,1527.82923 L686.366052,1527.75723 C686.454052,1527.70523 686.538052,1527.64923 686.609052,1527.59123 C686.752052,1527.47523 686.835052,1527.35623 686.866052,1527.26823 C686.893052,1527.17623 686.879052,1527.12223 686.865052,1527.05023 C686.845052,1526.98023 686.833052,1526.87223 686.787052,1526.73123 C686.680052,1526.51823 686.589052,1526.55723 686.394052,1526.45023 C686.292052,1526.40523 686.153052,1526.34323 685.983052,1526.28923 C685.899052,1526.26323 685.808052,1526.23923 685.720052,1526.22023 C685.675052,1526.21123 685.631052,1526.20323 685.593052,1526.20023 C685.574052,1526.19823 685.556052,1526.19723 685.543052,1526.19823 C685.548052,1526.20523 685.483052,1526.19023 685.584052,1526.22723 C683.902052,1525.71723 682.952052,1523.94023 683.463052,1522.25823 C683.974052,1520.57723 685.751052,1519.62723 687.432052,1520.13823 C687.630052,1520.20523 687.661052,1520.22623 687.761052,1520.26823 L687.994052,1520.37823 C688.144052,1520.45223 688.285052,1520.52823 688.424052,1520.60623 C688.700052,1520.76423 688.966052,1520.93623 689.225052,1521.12523 C689.744052,1521.50223 690.244052,1521.95523 690.692052,1522.50723 C691.138052,1523.05823 691.528052,1523.71923 691.774052,1524.44423 C692.026052,1525.16623 692.120052,1525.93523 692.087052,1526.63923 C692.061052,1527.31123 691.930052,1528.01823 691.649052,1528.71623 C691.369052,1529.41323 690.922052,1530.06623 690.397052,1530.56923 C689.870052,1531.07423 689.284052,1531.43423 688.704052,1531.68823 C688.413052,1531.81523 688.122052,1531.91523 687.827052,1531.99723 C687.679052,1532.03823 687.531052,1532.07423 687.377052,1532.10523 L687.140052,1532.14823 L686.828052,1532.19423 L686.709052,1532.21023 C686.671052,1532.21623 686.631052,1532.21723 686.595052,1532.21523 L679.547052,1531.77223 C678.737052,1531.72123 678.122052,1531.02323 678.173052,1530.21323 C678.217052,1529.50623 678.756052,1528.94823 679.431052,1528.85123 Z M679.428552,1533.51233 C683.394552,1533.29933 687.357552,1532.99933 691.319552,1532.69033 L692.804552,1532.56333 L693.546552,1532.49833 L693.732552,1532.48333 L693.778552,1532.47933 C693.727552,1532.48133 693.758552,1532.47933 693.748552,1532.47933 L693.778552,1532.47133 C693.831552,1532.46033 693.903552,1532.44333 693.971552,1532.42333 C694.251552,1532.34533 694.516552,1532.21933 694.700552,1532.08233 C694.887552,1531.94333 695.002552,1531.80533 695.075552,1531.65533 C695.149552,1531.50333 695.201552,1531.32833 695.220552,1531.08233 C695.234552,1530.96433 695.230552,1530.82433 695.225552,1530.67933 C695.211552,1530.57133 695.188552,1530.51633 695.163552,1530.44133 C695.100552,1530.30533 694.982552,1530.17533 694.814552,1530.04733 C694.721552,1529.99033 694.630552,1529.92533 694.515552,1529.88433 C694.460552,1529.86333 694.405552,1529.84333 694.350552,1529.83333 C694.324552,1529.82833 694.299552,1529.82533 694.276552,1529.82633 C694.268552,1529.83933 694.203552,1529.81633 694.284552,1529.88533 C693.023552,1529.10833 692.631552,1527.45433 693.409552,1526.19333 C694.187552,1524.93233 695.840552,1524.53933 697.102552,1525.31833 C697.288552,1525.45433 697.324552,1525.50433 697.416552,1525.58933 L697.635552,1525.81233 C697.772552,1525.95933 697.902552,1526.10733 698.026552,1526.25633 C698.271552,1526.55833 698.500552,1526.87533 698.704552,1527.21533 C699.115552,1527.89233 699.441552,1528.67433 699.581552,1529.51333 C699.650552,1529.92633 699.672552,1530.36733 699.653552,1530.75633 C699.633552,1531.10733 699.599552,1531.46433 699.520552,1531.83433 C699.376552,1532.56733 699.072552,1533.34333 698.592552,1534.01733 C698.116552,1534.69733 697.473552,1535.23833 696.810552,1535.60933 C696.141552,1535.98233 695.460552,1536.20133 694.768552,1536.32433 C694.593552,1536.35533 694.420552,1536.37833 694.227552,1536.39533 L694.071552,1536.40733 L693.948552,1536.41233 L693.901552,1536.41233 L693.715552,1536.41133 L692.969552,1536.40833 L691.476552,1536.39933 C687.499552,1536.40833 683.522552,1536.42533 679.549552,1536.52933 C678.715552,1536.55133 678.022552,1535.89333 678.000552,1535.06033 C677.978552,1534.24133 678.616552,1533.55733 679.428552,1533.51233 Z" id="Combined-Shape"></path>
        </g>
    </g>
</svg>