<?xml version="1.0" encoding="UTF-8" standalone="no"?>
<svg width="30px" height="30px" viewBox="0 0 30 30" version="1.1" xmlns="http://www.w3.org/2000/svg" xmlns:xlink="http://www.w3.org/1999/xlink">
    <!-- Generator: Sketch 49.1 (51147) - http://www.bohemiancoding.com/sketch -->
    <title>湿度</title>
    <desc>Created with Sketch.</desc>
    <defs></defs>
    <g id="Page-1" stroke="none" stroke-width="1" fill="none" fill-rule="evenodd">
        <g id="电子易拉宝5" transform="translate(-673.000000, -1429.000000)" fill="#A0C8FB">
            <path d="M687.852,1433.071 C687.858,1433.066 687.864,1433.061 687.87,1433.061 C687.873,1433.061 687.877,1433.063 687.88,1433.063 C687.883,1433.063 687.887,1433.061 687.89,1433.061 C687.895,1433.061 687.902,1433.066 687.908,1433.071 C688.559,1433.258 693.78,1438.17 695.283,1444.446 C691.983,1447.452 687.32,1447.083 685.498,1444.597 C684.276,1442.931 682.386,1442.641 680.999,1442.693 C682.934,1437.279 687.263,1433.24 687.852,1433.071 M689.788,1430.655 C689.25,1430.237 688.571,1430 687.89,1430 L687.88,1430 L687.87,1430 C687.188,1430 686.51,1430.236 685.972,1430.655 C682.89,1432.71 677,1439.955 677,1447.732 C677,1454.499 682.405,1458.074 687.77,1458.127 C687.804,1458.128 687.837,1458.128 687.87,1458.128 C687.902,1458.128 687.935,1458.128 687.968,1458.127 C693.347,1458.079 698.759,1454.504 698.759,1447.732 C698.759,1439.955 692.869,1432.71 689.788,1430.655" id="Fill-1"></path>
        </g>
    </g>
</svg>