<?xml version="1.0" encoding="UTF-8" standalone="no"?>
<svg width="30px" height="30px" viewBox="0 0 30 30" version="1.1" xmlns="http://www.w3.org/2000/svg" xmlns:xlink="http://www.w3.org/1999/xlink">
    <!-- Generator: Sketch 49.1 (51147) - http://www.bohemiancoding.com/sketch -->
    <title>空气质量</title>
    <desc>Created with Sketch.</desc>
    <defs></defs>
    <g id="Page-1" stroke="none" stroke-width="1" fill="none" fill-rule="evenodd">
        <g id="电子易拉宝5" transform="translate(-673.000000, -1474.000000)" fill="#A0C8FB">
            <path d="M699.279023,1485.85919 C697.633358,1483.46627 694.902209,1481.95061 691.16062,1481.35132 C683.363528,1480.10412 680.768725,1476.22407 680.743359,1476.18497 C680.667259,1476.06764 680.537254,1476 680.403022,1476 C680.361801,1476 680.32058,1476.00634 680.280416,1476.01903 C680.10602,1476.07399 679.990813,1476.23887 679.999269,1476.42066 C680.386111,1485.37511 688.146209,1493.2557 698.348911,1495.37382 C697.22432,1495.61903 695.655812,1495.87059 693.900224,1495.87059 C691.050697,1495.87059 688.582728,1495.22585 686.563961,1493.9554 C676.795665,1487.8082 677.320967,1478.42463 677.326252,1478.33057 C677.342106,1478.11601 677.185678,1477.92681 676.972175,1477.90145 C676.955264,1477.89933 676.93941,1477.89828 676.922498,1477.89828 C676.729077,1477.89828 676.558909,1478.03885 676.525087,1478.23438 C674.860396,1487.85894 677.46894,1493.44701 679.949592,1496.44028 C682.806518,1499.88698 686.430786,1501.15743 688.870218,1501.19548 L689.124942,1501.1976 C696.612348,1501.1976 700.192225,1496.07669 700.542074,1495.54716 C700.565327,1495.51968 700.56427,1495.47846 700.579067,1495.44464 C700.589636,1495.42033 700.615003,1495.40447 700.621345,1495.37699 C701.417225,1491.58467 700.953226,1488.2944 699.279023,1485.85919" id="Fill-3"></path>
        </g>
    </g>
</svg>